<?xml version="1.0" encoding="UTF-8" standalone="no"?>
<svg
   width="2400"
   height="1600"
   version="1.1"
   id="svg96717"
   xmlns="http://www.w3.org/2000/svg"
   xmlns:svg="http://www.w3.org/2000/svg">
  <defs
     id="icograms-svg-defs" />
  <g
     id="chart-container">
    <g
       id="i692"
       class="lvl-1"
       transform="translate(840,400)" />
    <g
       id="i289"
       class="lvl-1"
       transform="translate(1560,760)">
      <g
         id="g96713">
        <g
           id="i624"
           class="lvl-2"
           data-parent-id="289"
           transform="translate(192,0)scale(4)translate(32,0)scale(-1, 1)">
          <g
             id="g96119">
            <path
               d="m0 16 32-16v24l-32 16z"
               fill="#e5e5e5"
               id="path96113" />
            <path
               d="m32 24-32 16v-1l32-16z"
               fill="#28896d"
               id="path96115" />
            <path
               d="m32 24-32 16v-24l32-16z"
               opacity=".11"
               id="path96117" />
          </g>
        </g>
        <g
           id="i291"
           class="lvl-2"
           data-parent-id="289"
           transform="translate(256,32)scale(4)translate(32,0)scale(-1, 1)">
          <g
             id="g96128">
            <path
               d="m0 16 32-16v24l-32 16z"
               fill="#e5e5e5"
               id="path96122" />
            <path
               d="m32 24-32 16v-1l32-16z"
               fill="#28896d"
               id="path96124" />
            <path
               d="m32 24-32 16v-24l32-16z"
               opacity=".11"
               id="path96126" />
          </g>
        </g>
        <g
           id="i292"
           class="lvl-2"
           data-parent-id="289"
           transform="translate(64,0)scale(4)">
          <g
             id="g96137">
            <path
               d="m0 16 32-16v24l-32 16z"
               fill="#e5e5e5"
               id="path96131" />
            <path
               d="m32 24-32 16v-1l32-16z"
               fill="#28896d"
               id="path96133" />
            <path
               d="m32 24-32 16v-24l32-16z"
               opacity=".29"
               id="path96135" />
          </g>
        </g>
        <g
           id="i293"
           class="lvl-2"
           data-parent-id="289"
           transform="translate(384,96)scale(4)">
          <g
             id="g96146">
            <path
               d="m0 0 16 8v24l-16-8z"
               fill="#e5e5e5"
               id="path96140" />
            <path
               d="m16 32-16-8v-1l16 8z"
               fill="#28896d"
               id="path96142" />
            <path
               d="m16 32-16-8v-24l16 8z"
               opacity=".11"
               id="path96144" />
          </g>
        </g>
        <g
           id="i782"
           class="lvl-2"
           data-parent-id="289"
           transform="translate(416,112)scale(4)">
          <g
             id="g96155">
            <path
               d="m0 0 16 8v24l-16-8z"
               fill="#e5e5e5"
               id="path96149" />
            <path
               d="m16 32-16-8v-1l16 8z"
               fill="#28896d"
               id="path96151" />
            <path
               d="m16 32-16-8v-24l16 8z"
               opacity=".11"
               id="path96153" />
          </g>
        </g>
        <g
           id="i294"
           class="lvl-2"
           data-parent-id="289"
           transform="translate(0,64)scale(4)translate(16,0)scale(-1, 1)">
          <g
             id="g96164">
            <path
               d="m0 0 16 8v24l-16-8z"
               fill="#e5e5e5"
               id="path96158" />
            <path
               d="m16 32-16-8v-1l16 8z"
               fill="#28896d"
               id="path96160" />
            <path
               d="m16 32-16-8v-24l16 8z"
               opacity=".29"
               id="path96162" />
          </g>
        </g>
        <g
           id="i295"
           class="lvl-2"
           data-parent-id="289"
           transform="translate(120,48)scale(4)scale(0.1)">
          <g
             id="g96315">
            <path
               d="m294 68-84-42-4 2v65l84 42 4-2z"
               fill="#656565"
               id="path96167" />
            <path
               d="m206 28 84 42v65l-84-42z"
               opacity=".11"
               id="path96169" />
            <path
               d="m294 68-4 2v65l4-2z"
               opacity=".29"
               id="path96171" />
            <path
               d="m210 38-4-2-4 2v13.7l4 2 4-2z"
               fill="#656565"
               id="path96173" />
            <path
               d="m202 38 4 2v13.7l-4-2z"
               opacity=".11"
               id="path96175" />
            <path
               d="m210 38-4 2v13.7l4-2z"
               opacity=".29"
               id="path96177" />
            <path
               d="m164 71.3-4-2-4 2v13.7l4 2 4-2z"
               fill="#656565"
               id="path96179" />
            <path
               d="m156 71.3 4 2v13.7l-4-2z"
               opacity=".11"
               id="path96181" />
            <path
               d="m164 71.3-4 2v13.7l4-2z"
               opacity=".29"
               id="path96183" />
            <path
               d="m210 33-4-2-50 36v5l4 2 50-36z"
               fill="#656565"
               id="path96185" />
            <path
               d="m156 67 4 2v5l-4-2z"
               opacity=".11"
               id="path96187" />
            <path
               d="m210 33-50 36v5l50-36z"
               opacity=".29"
               id="path96189" />
            <path
               d="m100 270 170-85-80-40-170 85z"
               opacity=".2"
               id="path96191" />
            <path
               d="m262.3 166.4c2.1-1.1 4.1-1.2 5.5-.6l4 2c1.5.7 2.5 2.3 2.5 4.6 0 4.4-3.6 9.8-8 12-2.2 1.1-4.2 1.2-5.6.5 0 0-4-2-4.3-2.2-1.3-.8-2.1-2.3-2.1-4.3 0-4.4 3.6-9.8 8-12z"
               fill="#2d3134"
               id="path96193" />
            <path
               d="m260.6 184.9c-.6-.3-3.9-2-4.2-2.1-1.3-.8-2.1-2.3-2.1-4.3 0-1.8.6-3.7 1.6-5.5l4 2c-1 1.8-1.6 3.8-1.6 5.5 0 2.1.9 3.6 2.3 4.4z"
               opacity=".11"
               id="path96195" />
            <path
               d="m260.3 179.3c0 3.3 2.7 4.7 6 3s6-5.7 6-9-2.7-4.7-6-3-6 5.7-6 9z"
               fill="#656565"
               id="path96197" />
            <path
               d="m265.8 182.1c3.3-1.7 6-5.7 6-9 0-1.6-.7-2.8-1.7-3.3 1.3.4 2.2 1.7 2.2 3.6 0 3.3-2.7 7.4-6 9-1.7.8-3.2.9-4.3.3 1.1.3 2.4.2 3.8-.6z"
               fill="#808285"
               id="path96199" />
            <path
               d="m263.3 177.4c0 1.4 1.1 1.9 2.5 1.3 1.4-.7 2.5-2.4 2.5-3.8s-1.1-1.9-2.5-1.3c-1.3.7-2.5 2.4-2.5 3.8z"
               fill="#2d3134"
               id="path96201" />
            <path
               d="m263.3 177.4c0 1.4 1.1 1.9 2.5 1.3 1.4-.7 2.5-2.4 2.5-3.8s-1.1-1.9-2.5-1.3c-1.3.7-2.5 2.4-2.5 3.8z"
               opacity=".39"
               id="path96203" />
            <path
               d="m263.8 177.6c0 1.4 1.1 1.9 2.5 1.3 1.4-.7 2.5-2.4 2.5-3.8s-1.1-1.9-2.5-1.3c-1.3.8-2.5 2.4-2.5 3.8z"
               fill="#2d3134"
               id="path96205" />
            <path
               d="m258.3 180.4c0 4.4 3.6 6.2 8 4s8-7.6 8-12-3.6-6.2-8-4-8 7.6-8 12z"
               opacity=".29"
               id="path96207" />
            <path
               d="m98.7 248.4c2.1-1.1 4.1-1.2 5.5-.6l4 2c1.5.7 2.5 2.3 2.5 4.6 0 4.4-3.6 9.8-8 12-2.2 1.1-4.2 1.2-5.6.5 0 0-4-2-4.3-2.2-1.3-.8-2.1-2.3-2.1-4.3 0-4.4 3.5-9.8 8-12z"
               fill="#2d3134"
               id="path96209" />
            <path
               d="m97 266.9c-.6-.3-3.9-2-4.2-2.1-1.3-.8-2.1-2.3-2.1-4.3 0-1.8.6-3.7 1.6-5.5l4 2c-1 1.8-1.6 3.8-1.6 5.5 0 2.1.8 3.6 2.3 4.4z"
               opacity=".11"
               id="path96211" />
            <path
               d="m96.7 261.3c0 3.3 2.7 4.7 6 3s6-5.7 6-9-2.7-4.7-6-3-6 5.7-6 9z"
               fill="#656565"
               id="path96213" />
            <path
               d="m102.2 264.1c3.3-1.7 6-5.7 6-9 0-1.6-.7-2.8-1.7-3.3 1.3.4 2.2 1.7 2.2 3.6 0 3.3-2.7 7.4-6 9-1.7.8-3.2.9-4.3.3 1 .3 2.3.2 3.8-.6z"
               fill="#808285"
               id="path96215" />
            <path
               d="m99.7 259.4c0 1.4 1.1 1.9 2.5 1.3s2.5-2.4 2.5-3.8-1.1-1.9-2.5-1.3c-1.4.7-2.5 2.4-2.5 3.8z"
               fill="#2d3134"
               id="path96217" />
            <path
               d="m99.7 259.4c0 1.4 1.1 1.9 2.5 1.3s2.5-2.4 2.5-3.8-1.1-1.9-2.5-1.3c-1.4.7-2.5 2.4-2.5 3.8z"
               opacity=".39"
               id="path96219" />
            <path
               d="m100.2 259.6c0 1.4 1.1 1.9 2.5 1.3s2.5-2.4 2.5-3.8-1.1-1.9-2.5-1.3c-1.4.8-2.5 2.4-2.5 3.8z"
               fill="#2d3134"
               id="path96221" />
            <path
               d="m94.7 262.4c0 4.4 3.6 6.2 8 4s8-7.6 8-12-3.6-6.2-8-4c-4.5 2.2-8 7.6-8 12z"
               opacity=".29"
               id="path96223" />
            <path
               d="m28.6 213.3c2.1-1.1 4.1-1.2 5.5-.6l4 2c1.5.7 2.5 2.3 2.5 4.6 0 4.4-3.6 9.8-8 12.1-2.2 1.1-4.2 1.2-5.6.5 0 0-4-2-4.3-2.2-1.3-.8-2.1-2.3-2.1-4.4 0-4.3 3.6-9.7 8-12z"
               fill="#2d3134"
               id="path96225" />
            <path
               d="m26.9 231.9c-.6-.3-3.9-2-4.2-2.1-1.3-.8-2.1-2.3-2.1-4.4 0-1.8.6-3.7 1.6-5.6l4 2c-1 1.8-1.6 3.8-1.6 5.6 0 2.2.9 3.8 2.3 4.5z"
               opacity=".11"
               id="path96227" />
            <path
               d="m26.6 226.4c0 3.3 2.7 4.7 6 3s6-5.7 6-9.1c0-3.3-2.7-4.7-6-3s-6 5.7-6 9.1z"
               fill="#656565"
               id="path96229" />
            <path
               d="m32.2 229.2c3.3-1.7 6-5.7 6-9.1 0-1.6-.7-2.8-1.7-3.4 1.4.4 2.2 1.7 2.2 3.6 0 3.3-2.7 7.4-6 9.1-1.7.8-3.2.9-4.3.3 1 .3 2.3.2 3.8-.5z"
               fill="#808285"
               id="path96231" />
            <path
               d="m29.6 224.4c0 1.4 1.1 2 2.5 1.3s2.5-2.4 2.5-3.8-1.1-2-2.5-1.3c-1.3.7-2.5 2.4-2.5 3.8z"
               fill="#2d3134"
               id="path96233" />
            <path
               d="m29.6 224.4c0 1.4 1.1 2 2.5 1.3s2.5-2.4 2.5-3.8-1.1-2-2.5-1.3c-1.3.7-2.5 2.4-2.5 3.8z"
               opacity=".39"
               id="path96235" />
            <path
               d="m30.2 224.6c0 1.4 1.1 2 2.5 1.3s2.5-2.4 2.5-3.8-1.1-2-2.5-1.3c-1.4.8-2.5 2.4-2.5 3.8z"
               fill="#2d3134"
               id="path96237" />
            <path
               d="m24.6 227.4c0 4.4 3.6 6.2 8 4s8-7.6 8-12.1c0-4.4-3.6-6.2-8-4s-8 7.7-8 12.1z"
               opacity=".29"
               id="path96239" />
            <path
               d="m194 128 6-3 64 32v7l-6 3-64-32z"
               fill="#656565"
               id="path96241" />
            <path
               d="m194 128 64 32v7l-64-32z"
               opacity=".11"
               id="path96243" />
            <path
               d="m270 138-6-3-6 3v29l6 3 6-3z"
               fill="#656565"
               id="path96245" />
            <path
               d="m258 138 6 3v29l-6-3z"
               opacity=".11"
               id="path96247" />
            <path
               d="m270 138-6 3v29l6-3z"
               opacity=".29"
               id="path96249" />
            <path
               d="m264 163-6-3-158 79v7l6 3 158-79z"
               fill="#656565"
               id="path96251" />
            <path
               d="m100 239 6 3v7l-6-3z"
               opacity=".11"
               id="path96253" />
            <path
               d="m264 163-158 79v7l158-79z"
               opacity=".29"
               id="path96255" />
            <path
               d="m26 208 6-3 68 34v7l-6 3-68-34z"
               fill="#656565"
               id="path96257" />
            <path
               d="m26 208 68 34v7l-68-34z"
               opacity=".11"
               id="path96259" />
            <path
               d="m106 185-6-3-6 3v64l6 3 6-3z"
               fill="#656565"
               id="path96261" />
            <path
               d="m94 185 6 3v64l-6-3z"
               opacity=".11"
               id="path96263" />
            <path
               d="m106 185-6 3v64l6-3z"
               opacity=".29"
               id="path96265" />
            <path
               d="m290 114-80-40-210 105v21l80 40 210-105z"
               fill="#656565"
               id="path96267" />
            <path
               d="m0 179 80 40v21l-80-40z"
               opacity=".11"
               id="path96269" />
            <path
               d="m290 114-210 105v21l210-105z"
               opacity=".29"
               id="path96271" />
            <path
               d="m290 80-80-40-68 49v21l80 40 68-49z"
               fill="#ffffff"
               id="path96273" />
            <path
               d="m142 89 80 40v21l-80-40z"
               opacity=".11"
               id="path96275" />
            <path
               d="m290 80-68 49v21l68-49z"
               opacity=".29"
               id="path96277" />
            <path
               d="m220 130-80-40-136 68v21l80 40 136-68z"
               fill="#ffffff"
               id="path96279" />
            <path
               d="m4 158 80 40v21l-80-40z"
               opacity=".11"
               id="path96281" />
            <path
               d="m220 130-136 68v21l136-68z"
               opacity=".29"
               id="path96283" />
            <path
               d="m84 188-80-40-4 2v50l80 40 4-2z"
               fill="#656565"
               id="path96285" />
            <path
               d="m0 150 80 40v50l-80-40z"
               opacity=".11"
               id="path96287" />
            <path
               d="m84 188-4 2v50l4-2z"
               opacity=".29"
               id="path96289" />
            <path
               d="m294 93-4-2-50 36v10l4 2 50-36z"
               fill="#656565"
               id="path96291" />
            <path
               d="m240 127 4 2v10l-4-2z"
               opacity=".11"
               id="path96293" />
            <path
               d="m294 93-50 36v10l50-36z"
               opacity=".29"
               id="path96295" />
            <path
               d="m294 80-4-2-4 2v13.7l4 2 4-2z"
               fill="#656565"
               id="path96297" />
            <path
               d="m286 80 4 2v13.7l-4-2z"
               opacity=".11"
               id="path96299" />
            <path
               d="m294 80-4 2v13.7l4-2z"
               opacity=".29"
               id="path96301" />
            <path
               d="m248 113.3-4-2-4 2v13.7l4 2 4-2z"
               fill="#656565"
               id="path96303" />
            <path
               d="m240 113.3 4 2v13.7l-4-2z"
               opacity=".11"
               id="path96305" />
            <path
               d="m248 113.3-4 2v13.7l4-2z"
               opacity=".29"
               id="path96307" />
            <path
               d="m294 75-4-2-50 36v5l4 2 50-36z"
               fill="#656565"
               id="path96309" />
            <path
               d="m240 109 4 2v5l-4-2z"
               opacity=".11"
               id="path96311" />
            <path
               d="m294 75-50 36v5l50-36z"
               opacity=".29"
               id="path96313" />
          </g>
        </g>
        <g
           id="i299"
           class="lvl-2"
           data-parent-id="289"
           transform="translate(72,140)scale(4)scale(0.1)">
          <g
             id="g96338">
            <path
               d="m95 150c0-4.5-3.8-8.9-9.6-11.8l-27.4-13.2v-2l-12-6-46 23v59.8l37.3 18.5c3.2 1.6 7.7 2.5 12.6 2.5 9.8 0 16.3-4.3 17.7-8.8l26.9-56.3s.5-4.7.5-5.7z"
               fill="#ffffff"
               id="path96318" />
            <path
               d="m95 150c0-4.5-3.8-8.9-9.6-11.8l-27.4-13.3-46 23v5l24 12c5.9 2.9 16.8 5.6 25.8 5.6 18 0 31.7-6.8 32.9-16.5 0 0 .3-3.4.3-4zm-33.2 10.2c-.9 0-1.9 0-2.8-.1-5.4-.3-10.4-1.5-14-3.3l-16.4-8.3c-.2-.1-.4-.2-.5-.4.1-.1.3-.3.5-.4l26.5-13.3c1.2-.6 2.6-.9 3.9-.8 1.1 0 2.2.3 3.3.8l16.3 8.2c3.6 1.8 6.1 4.3 6.7 7-1.4 6.1-11.4 10.6-23.5 10.6z"
               fill="#06547a"
               id="path96320" />
            <path
               d="m61.4 166c-9 0-17.3-1.7-23.2-4.6l-26.2-13.4v-2l-12-6v59.8l37.3 18.5c3.2 1.6 7.7 2.5 12.6 2.5 9.8 0 16.3-4.3 17.7-8.8l26.9-56.3.5-5.7c0 9-15.6 16-33.6 16z"
               opacity=".2"
               id="path96322" />
            <path
               d="m28.5 147.8 26.5-13.3c2.3-1.1 4.9-1.1 7.2 0l16.3 8.2c3.6 1.8 6.1 4.3 6.7 7 .1-.5.2-.9.2-1.4 0-3.3-2.6-6.2-6.9-8.3l-16.3-8.2c-2.3-1.1-4.9-1.1-7.2 0l-26.5 13.3c-1.3.6-1.4 2.3-.5 3.2.2-.2.3-.4.5-.5z"
               opacity=".1"
               id="path96324" />
            <path
               d="m78.6 142.8-16.3-8.2c-2.3-1.1-4.9-1.1-7.2 0l-26.5 13.3c-.2.1-.4.2-.5.4.1.1.3.3.5.4l.5.3 26-13c2.3-1.1 4.9-1.1 7.2 0l16.3 8.2c3.4 1.7 5.7 3.9 6.5 6.3.1-.2.1-.4.2-.7-.6-2.7-3.1-5.1-6.7-7z"
               opacity=".2"
               id="path96326" />
            <path
               d="m78.6 142.8-16.3-8.2c-1-.5-2.1-.8-3.3-.8v26.4c.9.1 1.8.1 2.8.1 12.1 0 22.1-4.6 23.5-10.4-.6-2.8-3.1-5.2-6.7-7.1z"
               opacity=".11"
               id="path96328" />
            <path
               d="m55.1 134.6-26.5 13.3c-.2.1-.4.2-.5.4.1.1.3.3.5.4l16.4 8.3c3.7 1.8 8.6 3 14 3.3v-26.4c-1.3-.2-2.7.1-3.9.7z"
               opacity=".29"
               id="path96330" />
            <path
               d="m10 145 2 1 16.2-8.1 1.8 1 16-8-1.8-1 13.8-6.9v-35.1c0-11.9-14.6-19.6-25.2-14.3-14 7-22.8 21.2-22.8 36.8z"
               fill="#06547a"
               id="path96332" />
            <path
               d="m12 146 46-23v-34.2c0-11.9-12.6-19.7-23.2-14.4-14 7-22.8 21.2-22.8 36.8z"
               opacity=".29"
               id="path96334" />
            <path
               d="m12 146-2-1v-34l2 1z"
               opacity=".11"
               id="path96336" />
          </g>
        </g>
        <g
           id="i300"
           class="lvl-2"
           data-parent-id="289"
           transform="translate(152,32)scale(4)translate(16,0)scale(-1, 1)scale(0.1)">
          <g
             id="g96369">
            <path
               d="m147.9 207.5c5.3-6.7-9.7-8-12.8-13.2-2.9-4.8 8.9-8.6 3-9.9-8.8-1.9-18-3.1-28.3-11.7-20.3-17-47.2-33.1-59.5-28.7-17.6 6.3-14.2 16.8-3.4 19.1s52.5 19.1 62.9 28.4c10.3 9.4 28.5 28.2 38.1 16z"
               opacity=".2"
               id="path96341" />
            <path
               d="m20.8 48.8c7.5-2.7 12.9 1.6 15.5 8.5s.6 13.7 4.3 16.8 6.9 2.3 6.9 2.3-1.3 4.6-12.6 5.4c-11.4.8-22.1-30.1-14.1-33z"
               fill="#762c07"
               id="path96343" />
            <path
               d="m28.3 121.9 25.7-9.8c-1-3.7-1.5-7.5-.5-10.1 1.5-4.1 1.4-7.3-.8-10.3-2.3-3-9.3-13.4-11.8-12.8-2.4.6-5.2 0-6.1-1.8-.8-1.8-1.1-2.7-1.1-2.7l-10.2-.3s-.8 9.3-3.9 10.3c-14.8 4.5.7 13.4 2.8 18.2 1.2 2.9 3.6 11.8 5.9 19.3z"
               fill="#fbd7c7"
               id="path96345" />
            <path
               d="m132.9 184.7c-4.5-.1-14.5-5-17.1-12-.5-1.3-1.1-3.6-1.7-6.6l-9.4 2.3c1.7 4.9 3 9.1 3 10.9-.1 3.9-1.2 9 2 10.3s8.9-1.2 15.2 0c6.2 1.2 13.7-1.7 13.5-3.6-.3-2-.9-1.2-5.5-1.3z"
               fill="#fff"
               id="path96347" />
            <path
               d="m38.9 79.6s5.6-2.6 8.6.1c3.1 2.7 4.7 4.7 7.4 12.5s7.6 15.9 7.6 15.9 7.2 3.7 9.3 4.9 4.4 1.9 5.3 2 2-1.7 3.1-1.5 1.7.7 2.4 1.1c.8.3 1 .8 1 .8s1.9-.6 3 .7 3.2 2.3 2.6 4.1c-.6 1.9-1.5 3.6-4.5 4s-2.8 1.1-3 .4 0-1.5 0-1.5-2.2-.7-2.7-.9-1-.8-1-.8-6.7-.7-10.1-1.1-7.8-.7-10.1-3.7c-2.4-3.1-6.7-10.1-9-14.8s-9.9-22.2-9.9-22.2z"
               fill="#fbd7c7"
               id="path96349" />
            <path
               d="m20.2 49.4c6.4-2.5 13.2.6 15.8 9.6s1.1 16.1-2.1 17.5c-3.1 1.4-7.6.8-10.7-.6s-16.2-21.3-3-26.5z"
               fill="#fbd7c7"
               id="path96351" />
            <path
               d="m115.8 172.1c-2.1-6.9-7.7-45-8.6-48.9-1-3.9-4.8-7.2-10.4-5.2s-16.3 5-20.8 6.9c-10.5 4.4-13.4 2.5-16.9-2-1.5 1.5-5.6 5.2-12.5 8-4.9 2 15.5 25.5 15.5 25.5s4.8.3 9.7-3.2c5-3.4 22.2-17.7 22.2-17.7s.2 7.1 3.8 16.3c2.7 7.1 7 17 9.2 23.4 0-.1 8.8-2.9 8.8-3.1z"
               fill="#2d3134"
               id="path96353" />
            <path
               d="m115.8 172.1c-2.1-6.9-7.7-45-8.6-48.9-1-3.9-4.8-7.2-10.4-5.2s-16.3 5-20.8 6.9c-10.5 4.4-13.4 2.5-16.9-2-1.5 1.5-5.6 5.2-12.5 8-4.9 2 15.5 25.5 15.5 25.5s4.8.3 9.7-3.2c5-3.4 22.2-17.7 22.2-17.7s.2 7.1 3.8 16.3c2.7 7.1 7 17 9.2 23.4 0-.1 8.8-2.9 8.8-3.1z"
               opacity=".2"
               id="path96355" />
            <path
               d="m136.6 198c-3.5-1.1-7.7-5.5-10-7.7-.5-.5-1.9-2.5-3.9-5.4l-7.1 5.7c3 3 6.4 7.5 6.9 11.3.3 2.1 3.5 3.2 5.9 3.7 2.9.6 6.9 3.4 10.6 4.2s7-2.7 7.9-5.4c1-2.9-6.8-5.3-10.3-6.4z"
               fill="#fff"
               id="path96357" />
            <path
               d="m126.9 189.8c-2.8-3-24.1-36.8-28.1-42.6-4.1-5.8-10.4-5.8-17.5-6.7-4.2-.6-13.6-3-21.9-3.9-.8-.1-4-6.9-5.3-9.4-2.1 1.4-22.1 8.8-22.1 8.8s3.1 10.8 5 16.1c2.3 6.4 5.2 9 13.4 9.9 12.4 1.3 36.2-5.8 36.2-5.8s1.6 5.4 5.7 11.6 20 19.9 23.1 22.9c1.3 1.3 2.6 2.8 3.8 4.4z"
               fill="#2d3134"
               id="path96359" />
            <path
               d="m21 82.1s10 11.1 16.8 8.9c6.4-2.1 1.9-12.1 1.9-12.1s5.8-1.7 8.7.8 5 6.8 5.8 8.9 2.1 5.6 2.1 5.6l-1.7 1.9s.4 1.7-.3 5c-.9 4.2 0 9.1 2.3 15.6 1.1 3.2 8.3 10.3 8.3 10.3s-5.3 6.7-9.3 9.2c-9.9 6.2-20.9 10.5-20.9 10.5s-7.3-21.3-9.3-27.1-4.8-10.2-4.8-10.2l-7.8.3s-2-11.7-2.1-13.9.3-8.1 3.4-9.4c2.9-1.3 6.9-4.3 6.9-4.3z"
               fill="#cc291f"
               id="path96361" />
            <path
               d="m35.5 56.5-5.2-1.9s-.9 3.5-3.1 8.8-4.7 9-2.2 11.8 5.2 2.8 5.2 2.8-2.9 7.8-10.2 8.2c-5.6.3-7.6 1.3-7.6 1.3s4.8-6.3 1.4-17.8c-2.4-8.1-2.7-17.7 6.2-20.8 7.6-2.7 12.6 1.2 15.5 7.6z"
               fill="#762c07"
               id="path96363" />
            <path
               d="m63.7 135.4c-1.6-1.4-6.8-3.3-9.9-2.4s-5.3 2.3-6.7 2c-1.4-.4-12.3-7.3-16.6-9.4s-7.2-3.4-7.2-3.4.3-6.9.3-13.2l-9.9.6c.9 7.1.9 14.2 1.1 15.5.2 1.8 2 4.8 8.7 7.4 6.6 2.6 15.3 5.3 17.3 6.5 2 1.1 6.7 3.3 9.6 2.8 2.9-.6 4.4-2.8 6.7-1.9 2.3 1 7.5 4.2 8.5 2.2.9-2.1-.2-5.3-1.9-6.7z"
               fill="#fbd7c7"
               id="path96365" />
            <path
               d="m50 106.2c2.3-.4 3.4-1 3.9-1.2 0-1.4.1-2.7.3-3.9.1-.3.1-.5.2-.8-.5.9-1.4 2-3.5 2.9-4 1.8-6.6-.8-6.6-.8s-.7 3-7.3 6.2c-5 2.4-11.2-1-11.2-1s3.9 5.4 11.6 3.5c4.1-1 7.2-6.2 7.2-6.2s2.3 1.9 5.4 1.3z"
               opacity=".15"
               id="path96367" />
          </g>
        </g>
        <g
           id="i303"
           class="lvl-2"
           data-parent-id="289"
           transform="translate(54,77.5)scale(0.7291666666666666)translate(24, 0) skewY(-26.56505) translate(-24, 0)translate(48,0)scale(-1, 1)">
          <g
             id="g96374">
            <rect
               fill="#28896d"
               width="48"
               height="48"
               id="rect96372" />
          </g>
        </g>
        <g
           id="i305"
           class="lvl-2"
           data-parent-id="289"
           transform="translate(56,80)translate(16, 0) skewY(-26.56505) translate(-16, 0)translate(32,0)scale(-1, 1)">
          <g
             id="g96379">
            <path
               fill="#ffffff"
               d="M24.4,2.1C20.1,1.4,16,4.3,16,6.3c0-2-4.1-4.9-8.4-4.2C2.7,3,0.1,8,3.7,15.7C7.2,23.3,16,30,16,30  s8.8-6.7,12.3-14.3C31.9,8,29.3,3,24.4,2.1z M9,7C7.9,7,7,7.9,7,9c0,0.6-0.4,1-1,1S5,9.6,5,9c0-2.2,1.8-4,4-4c0.6,0,1,0.4,1,1  S9.6,7,9,7z"
               id="path96377" />
          </g>
        </g>
        <g
           id="i308"
           class="lvl-2"
           data-parent-id="289"
           transform="translate(232,56)scale(4)scale(0.1)">
          <g
             id="g96418">
            <path
               d="m80 240 50-25-70-35-50 25z"
               opacity=".2"
               id="path96382" />
            <path
               d="m86 226-6-3-6 3v11l6 3 6-3z"
               fill="#ffffff"
               id="path96384" />
            <path
               d="m74 226 6 3v11l-6-3z"
               opacity=".11"
               id="path96386" />
            <path
               d="m86 226-6 3v11l6-3z"
               opacity=".29"
               id="path96388" />
            <path
               d="m22 194-6-3-6 3v11l6 3 6-3z"
               fill="#ffffff"
               id="path96390" />
            <path
               d="m10 194 6 3v11l-6-3z"
               opacity=".11"
               id="path96392" />
            <path
               d="m22 194-6 3v11l6-3z"
               opacity=".29"
               id="path96394" />
            <path
               d="m130 204-6-3-6 3v11l6 3 6-3z"
               fill="#ffffff"
               id="path96396" />
            <path
               d="m118 204 6 3v11l-6-3z"
               opacity=".11"
               id="path96398" />
            <path
               d="m130 204-6 3v11l6-3z"
               opacity=".29"
               id="path96400" />
            <path
               d="m130 96v109l-50 25-70-35v-109l50-25z"
               fill="#ffffff"
               id="path96402" />
            <path
               d="m130 95v2l-50 25-70-35v-2l50-25z"
               fill="#e5e5e5"
               id="path96404" />
            <path
               d="m78 123v25l-66-33v-25z"
               fill="#06547a"
               id="path96406" />
            <path
               d="m37 112v-4l18 9v4z"
               fill="#e5e5e5"
               id="path96408" />
            <path
               d="m78 150v77l-66-33v-77z"
               fill="#06547a"
               id="path96410" />
            <path
               d="m80 230 50-25v-110l-50 25z"
               opacity=".29"
               id="path96412" />
            <path
               d="m37 139v-4l18 9v4z"
               fill="#e5e5e5"
               id="path96414" />
            <path
               d="m80 120v110l-70-35v-110z"
               opacity=".11"
               id="path96416" />
          </g>
        </g>
        <g
           id="i627"
           class="lvl-2"
           data-parent-id="289"
           transform="translate(0,96)scale(4)">
          <g
             id="g96427">
            <path
               d="m0 0 16 8v24l-16-8z"
               fill="#e5e5e5"
               id="path96421" />
            <path
               d="m16 32-16-8v-1l16 8z"
               fill="#28896d"
               id="path96423" />
            <path
               d="m16 32-16-8v-24l16 8z"
               opacity=".11"
               id="path96425" />
          </g>
        </g>
        <g
           id="i312"
           class="lvl-2"
           data-parent-id="289"
           transform="translate(64,128)scale(4)">
          <g
             id="g96436">
            <path
               d="m0 0 16 8v24l-16-8z"
               fill="#e5e5e5"
               id="path96430" />
            <path
               d="m16 32-16-8v-1l16 8z"
               fill="#28896d"
               id="path96432" />
            <path
               d="m16 32-16-8v-24l16 8z"
               opacity=".11"
               id="path96434" />
          </g>
        </g>
        <g
           id="i313"
           class="lvl-2"
           data-parent-id="289"
           transform="translate(128,160)scale(4)">
          <g
             id="g96445">
            <path
               d="m0 0 16 8v24l-16-8z"
               fill="#e5e5e5"
               id="path96439" />
            <path
               d="m16 32-16-8v-1l16 8z"
               fill="#28896d"
               id="path96441" />
            <path
               d="m16 32-16-8v-24l16 8z"
               opacity=".11"
               id="path96443" />
          </g>
        </g>
        <g
           id="i314"
           class="lvl-2"
           data-parent-id="289"
           transform="translate(192,192)scale(4)">
          <g
             id="g96454">
            <path
               d="m0 0 16 8v24l-16-8z"
               fill="#e5e5e5"
               id="path96448" />
            <path
               d="m16 32-16-8v-1l16 8z"
               fill="#28896d"
               id="path96450" />
            <path
               d="m16 32-16-8v-24l16 8z"
               opacity=".11"
               id="path96452" />
          </g>
        </g>
        <g
           id="i783"
           class="lvl-2"
           data-parent-id="289"
           transform="translate(224,208)scale(4)">
          <g
             id="g96463">
            <path
               d="m0 0 16 8v24l-16-8z"
               fill="#e5e5e5"
               id="path96457" />
            <path
               d="m16 32-16-8v-1l16 8z"
               fill="#28896d"
               id="path96459" />
            <path
               d="m16 32-16-8v-24l16 8z"
               opacity=".11"
               id="path96461" />
          </g>
        </g>
        <g
           id="i315"
           class="lvl-2"
           data-parent-id="289"
           transform="translate(384,88)scale(4)translate(16,0)scale(-1, 1)scale(0.1)">
          <g
             id="g96494">
            <path
               d="m30 125 100-50 4 2v180l-100 50-4-2z"
               fill="#FFFFFF"
               id="path96466" />
            <path
               d="m44 302 80-40v-170l-80 40z"
               fill="#FFFFFF"
               id="path96468" />
            <path
               d="m118 259v-164l6-3v170l-80 40v-6z"
               opacity=".3"
               id="path96470" />
            <path
               d="m50 139v32l62-31v-32z"
               fill="#FFFFFF"
               id="path96472" />
            <path
               d="m50 139v32l62-31v-32zm4 2 54-27v24l-54 27z"
               opacity=".3"
               id="path96474" />
            <path
               d="m50 177v32l62-31v-32z"
               fill="#FFFFFF"
               id="path96476" />
            <path
               d="m50 177v32l62-31v-32zm4 2 54-27v24l-54 27z"
               opacity=".3"
               id="path96478" />
            <path
               d="m50 215v32l62-31v-32z"
               fill="#FFFFFF"
               id="path96480" />
            <path
               d="m50 215v32l62-31v-32zm4 2 54-27v24l-54 27z"
               opacity=".3"
               id="path96482" />
            <path
               d="m50 253v32l62-31v-32z"
               fill="#FFFFFF"
               id="path96484" />
            <path
               d="m50 253v32l62-31v-32zm4 2 54-27v24l-54 27z"
               opacity=".3"
               id="path96486" />
            <path
               d="m58 206-8 4v-6l-4 2v21l4-2v-12l8-4z"
               fill="#999"
               id="path96488" />
            <path
               d="m34 127 100-50v180l-100 50z"
               opacity=".11"
               id="path96490" />
            <path
               d="m34 127-4-2v180l4 2z"
               opacity=".29"
               id="path96492" />
          </g>
        </g>
        <g
           id="i309"
           class="lvl-2"
           data-parent-id="289"
           transform="translate(240,84)scale(4)translate(8,0)scale(-1, 1)scale(0.1)">
          <g
             id="g96511">
            <path
               d="m38 5-38 19v1l30 15 16-8h2l4-2 2-2 14-7v-1z"
               fill="#cc291f"
               id="path96497" />
            <path
               d="m30 40-30-15v-1l30 15z"
               opacity=".29"
               id="path96499" />
            <path
               d="m30 39v1l16-8h2l4-2 2-2 14-7v-1l-16 8-2 2h-2z"
               opacity=".11"
               id="path96501" />
            <path
               d="m2 21v3l28 14 36-18v-3l-28-14h-.2c-6.3.7-12.3 4.5-16.8 9l-1 1c-6.5.6-12.5 2.5-17.1 7.1z"
               fill="#ffffff"
               id="path96503" />
            <path
               d="m30 38-28-14v-3l28 14z"
               opacity=".29"
               id="path96505" />
            <path
               d="m30 35v3l36-18v-3h-.2c-6.3.7-12.3 4.5-16.8 9l-1 1c-6.5.6-12.5 2.5-17.1 7.1z"
               opacity=".11"
               id="path96507" />
            <path
               d="m20 13c-6.5.6-12.5 2.5-17.1 7.1l-.9.9 28 14 .9-.9c4.6-4.6 10.6-6.5 17.1-7.1z"
               opacity=".05"
               id="path96509" />
          </g>
        </g>
        <g
           id="i310"
           class="lvl-2"
           data-parent-id="289"
           transform="translate(232,104)scale(4)scale(0.1)">
          <g
             id="g96662">
            <path
               d="m294 68-84-42-4 2v65l84 42 4-2z"
               fill="#656565"
               id="path96514" />
            <path
               d="m206 28 84 42v65l-84-42z"
               opacity=".11"
               id="path96516" />
            <path
               d="m294 68-4 2v65l4-2z"
               opacity=".29"
               id="path96518" />
            <path
               d="m210 38-4-2-4 2v13.7l4 2 4-2z"
               fill="#656565"
               id="path96520" />
            <path
               d="m202 38 4 2v13.7l-4-2z"
               opacity=".11"
               id="path96522" />
            <path
               d="m210 38-4 2v13.7l4-2z"
               opacity=".29"
               id="path96524" />
            <path
               d="m164 71.3-4-2-4 2v13.7l4 2 4-2z"
               fill="#656565"
               id="path96526" />
            <path
               d="m156 71.3 4 2v13.7l-4-2z"
               opacity=".11"
               id="path96528" />
            <path
               d="m164 71.3-4 2v13.7l4-2z"
               opacity=".29"
               id="path96530" />
            <path
               d="m210 33-4-2-50 36v5l4 2 50-36z"
               fill="#656565"
               id="path96532" />
            <path
               d="m156 67 4 2v5l-4-2z"
               opacity=".11"
               id="path96534" />
            <path
               d="m210 33-50 36v5l50-36z"
               opacity=".29"
               id="path96536" />
            <path
               d="m100 270 170-85-80-40-170 85z"
               opacity=".2"
               id="path96538" />
            <path
               d="m262.3 166.4c2.1-1.1 4.1-1.2 5.5-.6l4 2c1.5.7 2.5 2.3 2.5 4.6 0 4.4-3.6 9.8-8 12-2.2 1.1-4.2 1.2-5.6.5 0 0-4-2-4.3-2.2-1.3-.8-2.1-2.3-2.1-4.3 0-4.4 3.6-9.8 8-12z"
               fill="#2d3134"
               id="path96540" />
            <path
               d="m260.6 184.9c-.6-.3-3.9-2-4.2-2.1-1.3-.8-2.1-2.3-2.1-4.3 0-1.8.6-3.7 1.6-5.5l4 2c-1 1.8-1.6 3.8-1.6 5.5 0 2.1.9 3.6 2.3 4.4z"
               opacity=".11"
               id="path96542" />
            <path
               d="m260.3 179.3c0 3.3 2.7 4.7 6 3s6-5.7 6-9-2.7-4.7-6-3-6 5.7-6 9z"
               fill="#656565"
               id="path96544" />
            <path
               d="m265.8 182.1c3.3-1.7 6-5.7 6-9 0-1.6-.7-2.8-1.7-3.3 1.3.4 2.2 1.7 2.2 3.6 0 3.3-2.7 7.4-6 9-1.7.8-3.2.9-4.3.3 1.1.3 2.4.2 3.8-.6z"
               fill="#808285"
               id="path96546" />
            <path
               d="m263.3 177.4c0 1.4 1.1 1.9 2.5 1.3 1.4-.7 2.5-2.4 2.5-3.8s-1.1-1.9-2.5-1.3c-1.3.7-2.5 2.4-2.5 3.8z"
               fill="#2d3134"
               id="path96548" />
            <path
               d="m263.3 177.4c0 1.4 1.1 1.9 2.5 1.3 1.4-.7 2.5-2.4 2.5-3.8s-1.1-1.9-2.5-1.3c-1.3.7-2.5 2.4-2.5 3.8z"
               opacity=".39"
               id="path96550" />
            <path
               d="m263.8 177.6c0 1.4 1.1 1.9 2.5 1.3 1.4-.7 2.5-2.4 2.5-3.8s-1.1-1.9-2.5-1.3c-1.3.8-2.5 2.4-2.5 3.8z"
               fill="#2d3134"
               id="path96552" />
            <path
               d="m258.3 180.4c0 4.4 3.6 6.2 8 4s8-7.6 8-12-3.6-6.2-8-4-8 7.6-8 12z"
               opacity=".29"
               id="path96554" />
            <path
               d="m98.7 248.4c2.1-1.1 4.1-1.2 5.5-.6l4 2c1.5.7 2.5 2.3 2.5 4.6 0 4.4-3.6 9.8-8 12-2.2 1.1-4.2 1.2-5.6.5 0 0-4-2-4.3-2.2-1.3-.8-2.1-2.3-2.1-4.3 0-4.4 3.5-9.8 8-12z"
               fill="#2d3134"
               id="path96556" />
            <path
               d="m97 266.9c-.6-.3-3.9-2-4.2-2.1-1.3-.8-2.1-2.3-2.1-4.3 0-1.8.6-3.7 1.6-5.5l4 2c-1 1.8-1.6 3.8-1.6 5.5 0 2.1.8 3.6 2.3 4.4z"
               opacity=".11"
               id="path96558" />
            <path
               d="m96.7 261.3c0 3.3 2.7 4.7 6 3s6-5.7 6-9-2.7-4.7-6-3-6 5.7-6 9z"
               fill="#656565"
               id="path96560" />
            <path
               d="m102.2 264.1c3.3-1.7 6-5.7 6-9 0-1.6-.7-2.8-1.7-3.3 1.3.4 2.2 1.7 2.2 3.6 0 3.3-2.7 7.4-6 9-1.7.8-3.2.9-4.3.3 1 .3 2.3.2 3.8-.6z"
               fill="#808285"
               id="path96562" />
            <path
               d="m99.7 259.4c0 1.4 1.1 1.9 2.5 1.3s2.5-2.4 2.5-3.8-1.1-1.9-2.5-1.3c-1.4.7-2.5 2.4-2.5 3.8z"
               fill="#2d3134"
               id="path96564" />
            <path
               d="m99.7 259.4c0 1.4 1.1 1.9 2.5 1.3s2.5-2.4 2.5-3.8-1.1-1.9-2.5-1.3c-1.4.7-2.5 2.4-2.5 3.8z"
               opacity=".39"
               id="path96566" />
            <path
               d="m100.2 259.6c0 1.4 1.1 1.9 2.5 1.3s2.5-2.4 2.5-3.8-1.1-1.9-2.5-1.3c-1.4.8-2.5 2.4-2.5 3.8z"
               fill="#2d3134"
               id="path96568" />
            <path
               d="m94.7 262.4c0 4.4 3.6 6.2 8 4s8-7.6 8-12-3.6-6.2-8-4c-4.5 2.2-8 7.6-8 12z"
               opacity=".29"
               id="path96570" />
            <path
               d="m28.6 213.3c2.1-1.1 4.1-1.2 5.5-.6l4 2c1.5.7 2.5 2.3 2.5 4.6 0 4.4-3.6 9.8-8 12.1-2.2 1.1-4.2 1.2-5.6.5 0 0-4-2-4.3-2.2-1.3-.8-2.1-2.3-2.1-4.4 0-4.3 3.6-9.7 8-12z"
               fill="#2d3134"
               id="path96572" />
            <path
               d="m26.9 231.9c-.6-.3-3.9-2-4.2-2.1-1.3-.8-2.1-2.3-2.1-4.4 0-1.8.6-3.7 1.6-5.6l4 2c-1 1.8-1.6 3.8-1.6 5.6 0 2.2.9 3.8 2.3 4.5z"
               opacity=".11"
               id="path96574" />
            <path
               d="m26.6 226.4c0 3.3 2.7 4.7 6 3s6-5.7 6-9.1c0-3.3-2.7-4.7-6-3s-6 5.7-6 9.1z"
               fill="#656565"
               id="path96576" />
            <path
               d="m32.2 229.2c3.3-1.7 6-5.7 6-9.1 0-1.6-.7-2.8-1.7-3.4 1.4.4 2.2 1.7 2.2 3.6 0 3.3-2.7 7.4-6 9.1-1.7.8-3.2.9-4.3.3 1 .3 2.3.2 3.8-.5z"
               fill="#808285"
               id="path96578" />
            <path
               d="m29.6 224.4c0 1.4 1.1 2 2.5 1.3s2.5-2.4 2.5-3.8-1.1-2-2.5-1.3c-1.3.7-2.5 2.4-2.5 3.8z"
               fill="#2d3134"
               id="path96580" />
            <path
               d="m29.6 224.4c0 1.4 1.1 2 2.5 1.3s2.5-2.4 2.5-3.8-1.1-2-2.5-1.3c-1.3.7-2.5 2.4-2.5 3.8z"
               opacity=".39"
               id="path96582" />
            <path
               d="m30.2 224.6c0 1.4 1.1 2 2.5 1.3s2.5-2.4 2.5-3.8-1.1-2-2.5-1.3c-1.4.8-2.5 2.4-2.5 3.8z"
               fill="#2d3134"
               id="path96584" />
            <path
               d="m24.6 227.4c0 4.4 3.6 6.2 8 4s8-7.6 8-12.1c0-4.4-3.6-6.2-8-4s-8 7.7-8 12.1z"
               opacity=".29"
               id="path96586" />
            <path
               d="m194 128 6-3 64 32v7l-6 3-64-32z"
               fill="#656565"
               id="path96588" />
            <path
               d="m194 128 64 32v7l-64-32z"
               opacity=".11"
               id="path96590" />
            <path
               d="m270 138-6-3-6 3v29l6 3 6-3z"
               fill="#656565"
               id="path96592" />
            <path
               d="m258 138 6 3v29l-6-3z"
               opacity=".11"
               id="path96594" />
            <path
               d="m270 138-6 3v29l6-3z"
               opacity=".29"
               id="path96596" />
            <path
               d="m264 163-6-3-158 79v7l6 3 158-79z"
               fill="#656565"
               id="path96598" />
            <path
               d="m100 239 6 3v7l-6-3z"
               opacity=".11"
               id="path96600" />
            <path
               d="m264 163-158 79v7l158-79z"
               opacity=".29"
               id="path96602" />
            <path
               d="m26 208 6-3 68 34v7l-6 3-68-34z"
               fill="#656565"
               id="path96604" />
            <path
               d="m26 208 68 34v7l-68-34z"
               opacity=".11"
               id="path96606" />
            <path
               d="m106 185-6-3-6 3v64l6 3 6-3z"
               fill="#656565"
               id="path96608" />
            <path
               d="m94 185 6 3v64l-6-3z"
               opacity=".11"
               id="path96610" />
            <path
               d="m106 185-6 3v64l6-3z"
               opacity=".29"
               id="path96612" />
            <path
               d="m290 114-80-40-210 105v21l80 40 210-105z"
               fill="#656565"
               id="path96614" />
            <path
               d="m0 179 80 40v21l-80-40z"
               opacity=".11"
               id="path96616" />
            <path
               d="m290 114-210 105v21l210-105z"
               opacity=".29"
               id="path96618" />
            <path
               d="m290 80-80-40-68 49v21l80 40 68-49z"
               fill="#ffffff"
               id="path96620" />
            <path
               d="m142 89 80 40v21l-80-40z"
               opacity=".11"
               id="path96622" />
            <path
               d="m290 80-68 49v21l68-49z"
               opacity=".29"
               id="path96624" />
            <path
               d="m220 130-80-40-136 68v21l80 40 136-68z"
               fill="#ffffff"
               id="path96626" />
            <path
               d="m4 158 80 40v21l-80-40z"
               opacity=".11"
               id="path96628" />
            <path
               d="m220 130-136 68v21l136-68z"
               opacity=".29"
               id="path96630" />
            <path
               d="m84 188-80-40-4 2v50l80 40 4-2z"
               fill="#656565"
               id="path96632" />
            <path
               d="m0 150 80 40v50l-80-40z"
               opacity=".11"
               id="path96634" />
            <path
               d="m84 188-4 2v50l4-2z"
               opacity=".29"
               id="path96636" />
            <path
               d="m294 93-4-2-50 36v10l4 2 50-36z"
               fill="#656565"
               id="path96638" />
            <path
               d="m240 127 4 2v10l-4-2z"
               opacity=".11"
               id="path96640" />
            <path
               d="m294 93-50 36v10l50-36z"
               opacity=".29"
               id="path96642" />
            <path
               d="m294 80-4-2-4 2v13.7l4 2 4-2z"
               fill="#656565"
               id="path96644" />
            <path
               d="m286 80 4 2v13.7l-4-2z"
               opacity=".11"
               id="path96646" />
            <path
               d="m294 80-4 2v13.7l4-2z"
               opacity=".29"
               id="path96648" />
            <path
               d="m248 113.3-4-2-4 2v13.7l4 2 4-2z"
               fill="#656565"
               id="path96650" />
            <path
               d="m240 113.3 4 2v13.7l-4-2z"
               opacity=".11"
               id="path96652" />
            <path
               d="m248 113.3-4 2v13.7l4-2z"
               opacity=".29"
               id="path96654" />
            <path
               d="m294 75-4-2-50 36v5l4 2 50-36z"
               fill="#656565"
               id="path96656" />
            <path
               d="m240 109 4 2v5l-4-2z"
               opacity=".11"
               id="path96658" />
            <path
               d="m294 75-50 36v5l50-36z"
               opacity=".29"
               id="path96660" />
          </g>
        </g>
        <g
           id="i311"
           class="lvl-2"
           data-parent-id="289"
           transform="translate(232,104)scale(4)scale(0.1)">
          <g
             id="g96683">
            <path
               d="m137.7 95 36 18.3-50.4 24.7-36-18.2z"
               fill="#e5e5e5"
               id="path96665" />
            <path
               d="m52.5 179.8c2.3.6 8.9-8.7 12.5-14.6 3.7-5.9 7.9-9 19.8-12.1s12.3-4.6 22.4-4.1 31.2 13 31.2 13l51.4-25.9s-7.8-4.9-3-6.7 12.9-7.7 14.8-10.2 15.1-10.9 17.1-13c3.6-3.6.6-8 4-10.7s14.5-6.8 14.3-10.6c-.3-3.8-.6-10.4-5.6-10.2s-35.8 6-47.8 8.7c-11.9 2.7-23 12.7-30.7 16.4s-57.9 29.2-76.3 36.4-45 24.9-44 28.2c.9 3.3 14.2-9.3 16.5-5.5s-1.3 19.7 3.4 20.9z"
               opacity=".15"
               id="path96667" />
            <g
               fill="#fbd7c7"
               id="g96675">
              <path
                 d="m159.8 99.4c-10.4-1.3-27.2 4.2-39.1 11.8s-12.8 10.2-18.4 10.5-12.1-1.3-23 4.9c-10.8 6.2-22.9 13.9-25.2 14.4-3.1.7-7.2-5-9.7-1.8s-2.8 9.3-7.6 13.3-6 10.8-4.2 11.8 9.8-5.6 12.6-7.5 11.3-7 22.8-11.7c11.4-4.7 31.6-11.1 40.4-12.4s38.1-10 47.4-13.4c9.3-3.5 4.5-15.3 4.5-15.3z"
                 id="path96669" />
              <path
                 d="m60.8 151.4c-4.6 1.4-8.7-3.3-10.5 1.1-.8 2.1 1.7 6.7 2 10.4s-2.2 14.5-.3 16c1.9 1.4 5.3-4.8 6.4-7.7s4.4-11.8 14.3-15.3 32.6-10.2 36.4-10.1c5.8.1 10.1-2.2 15.8-3.4 5.6-1.2 31.6-5.2 40.7-11.2 9-6 13.9-11 21-14.6 2.8-1.4 9.4-.5 12.1-2 10-5.5 19-16.7 19.6-18.9.8-2.8 0-2.8.9-3.6s2.7.2 5.4-.1 8.3-5.3 10.3-6.9 5-8 1.7-12.8-9.2-7.5-15.6-2.1-7.7 11.9-9.2 11.9-6.1-3.1-9.8-4.7-8.9-3.7-14.6 2-13 14.2-16.9 16c-4 1.9-5.9 3.9-11.4 4.2s-12.7 9.9-13.1 12 3.1 4.8-2 5.9-14.3 5.1-20 9.1-8 5.8-11.8 6.6c-3.7.8-7.8-2.2-17.3 1.9-8.7 3.6-27.5 14.2-34.1 16.3z"
                 id="path96671" />
              <path
                 d="m148.8 101.1s11.2-12.3 14.3-14.1c3.1-1.9 20.3-11.3 27.5-11.4 5.1-.1 9.1.3 9.8 3.5.4 2-14.1 8.9-20.2 10.5-6.2 1.6-11.7 2.6-14.8 5.3-3.1 2.6-7.9 6.8-7.9 6.8z"
                 id="path96673" />
            </g>
            <path
               d="m229.3 85.3c.5-1.8 2.7-1.8 3.5-.8.8.9 4.9-1.1 5.8-4.3s1.2-11.7-8.5-13.9-17 6.6-19.9 7.5-10.5.8-15.7 1.9c-4.5 1-4.8 5.9 2.1 10.8 7 5 14 3.5 17.7 5.1s5.3 5.8 5.3 5.8 4.3-2.6 5.9-4.8c1.8-2.1 3.5-6.4 3.8-7.3z"
               fill="#762c07"
               id="path96677" />
            <path
               d="m105.6 120.5s20.7-15.7 30.3-18.9c7.1-2.4 19.6-3.2 19.6-3.2s6.8.9 12.5 10.9 4.5 17.8 4.5 17.8l17.3 8.7-51.1 25.2-17.5-9.3s-4.8-19-8.4-24.4c-3.6-5.5-7.2-6.8-7.2-6.8z"
               fill="#e5e5e5"
               id="path96679" />
            <path
               d="m218.2 94.9c2.4 3 3 9.5-2 13.2-5.2 3.8-11.5 7.6-16.3 12.2-4.6 4.3-6.8 5.5-11.4 7.1s-20.5 9-22.6 10.4-7.4 8.2-12.6 8.6-7.2-1.1-7.2-1.9 8.2-2.2 9-3c.8-.9 1.4-1.7.5-2.2-.9-.4-4.1.3-4.2-.2s2-2.2 3.8-2.1 4.4-.2 5.4-.9c1.1-.7 4.9-3.3 7.2-5.3 2.3-1.9 12.2-8.2 17-10.2s5.8-3 6.7-4.3c1.7-2.3 8.5-10.1 13-14.2s10.7-11 13.7-7.2z"
               fill="#fbd7c7"
               id="path96681" />
          </g>
        </g>
        <g
           id="i632"
           class="lvl-2"
           data-parent-id="289"
           transform="translate(416,144)scale(4)translate(16,0)scale(-1, 1)">
          <g
             id="g96692">
            <path
               d="m0 0 16 8v24l-16-8z"
               fill="#e5e5e5"
               id="path96686" />
            <path
               d="m16 32-16-8v-1l16 8z"
               fill="#28896d"
               id="path96688" />
            <path
               d="m16 32-16-8v-24l16 8z"
               opacity=".29"
               id="path96690" />
          </g>
        </g>
        <g
           id="i631"
           class="lvl-2"
           data-parent-id="289"
           transform="translate(352,176)scale(4)translate(16,0)scale(-1, 1)">
          <g
             id="g96701">
            <path
               d="m0 0 16 8v24l-16-8z"
               fill="#e5e5e5"
               id="path96695" />
            <path
               d="m16 32-16-8v-1l16 8z"
               fill="#28896d"
               id="path96697" />
            <path
               d="m16 32-16-8v-24l16 8z"
               opacity=".29"
               id="path96699" />
          </g>
        </g>
        <g
           id="i630"
           class="lvl-2"
           data-parent-id="289"
           transform="translate(288,208)scale(4)translate(16,0)scale(-1, 1)">
          <g
             id="g96710">
            <path
               d="m0 0 16 8v24l-16-8z"
               fill="#e5e5e5"
               id="path96704" />
            <path
               d="m16 32-16-8v-1l16 8z"
               fill="#28896d"
               id="path96706" />
            <path
               d="m16 32-16-8v-24l16 8z"
               opacity=".29"
               id="path96708" />
          </g>
        </g>
      </g>
    </g>
  </g>
</svg>
